ply
format ascii 1.0
comment VCGLIB generated
element vertex 8
property float x
property float y
property float z
property float nx
property float ny
property float nz
property int flags
element face 12
property list uchar int vertex_indices
property int flags
end_header
-31 -65 5 -0.5773503 -0.5773503 0.5773503 0 
-31 65 5 -0.5773503 0.5773503 0.5773503 0 
-31 -65 0 -0.5773503 -0.5773503 -0.5773503 0 
-31 65 0 -0.5773503 0.5773503 -0.5773503 0 
30 -65 0 0.5773503 -0.5773503 -0.5773503 0 
30 65 0 0.5773503 0.5773503 -0.5773503 0 
30 -65 5 0.5773503 -0.5773503 0.5773503 0 
30 65 5 0.5773503 0.5773503 0.5773503 0 
3 0 1 2 0 
3 1 3 2 0 
3 4 0 2 0 
3 3 4 2 0 
3 5 6 4 0 
3 6 0 4 0 
3 3 5 4 0 
3 7 1 0 0 
3 6 7 0 0 
3 5 7 6 0 
3 1 7 3 0 
3 7 5 3 0 
