ply
format ascii 1.0
comment VCGLIB generated
element vertex 10
property float x
property float y
property float z
property float nx
property float ny
property float nz
property int flags
element face 16
property list uchar int vertex_indices
property int flags
end_header
-53.9 27.8 -4.999998 -0.5773503 0.5773503 -0.5773502 0 
-53.9 6 -5 -0.685122 -0.3989604 -0.6094576 0 
-53.9 27.8 2.430353e-06 -0.5773503 0.5773502 0.5773503 0 
-53.9 6 5.245366e-07 -0.6851223 -0.3989604 0.6094573 0 
53.9 27.8 2.430353e-06 0.5773503 0.5773502 0.5773503 0 
3.899998 -26.8 -2.34293e-06 -0.1930939 -0.7315088 0.6539187 0 
53.9 27.8 -4.999998 0.5773506 0.5773501 -0.57735 0 
53.9 -26.8 -2.34293e-06 0.5773506 -0.5773501 0.57735 0 
3.899998 -26.8 -5.000002 -0.1930939 -0.7315087 -0.6539188 0 
53.9 -26.8 -5.000002 0.5773503 -0.5773502 -0.5773503 0 
3 0 1 2 0 
3 1 3 2 0 
3 4 0 2 0 
3 5 4 2 0 
3 3 5 2 0 
3 6 0 4 0 
3 7 6 4 0 
3 5 7 4 0 
3 8 1 0 0 
3 6 8 0 0 
3 7 9 6 0 
3 9 8 6 0 
3 1 8 3 0 
3 8 5 3 0 
3 8 9 5 0 
3 9 7 5 0 
