ply
format ascii 1.0
comment VCGLIB generated
element vertex 8
property float x
property float y
property float z
property float nx
property float ny
property float nz
property int flags
element face 12
property list uchar int vertex_indices
property int flags
end_header
108.78 -76.93 -4.9 0.5773501 -0.5773506 -0.5773501 0 
-108.78 -76.93 0 -0.5773501 -0.5773506 0.5773501 0 
-108.78 -76.93 -4.9 -0.5773505 -0.5773503 -0.5773501 0 
-108.78 76.93 0 -0.5773505 0.5773503 0.5773501 0 
-108.78 76.93 -4.9 -0.5773501 0.5773506 -0.5773501 0 
108.78 76.93 -4.9 0.5773505 0.5773503 -0.5773501 0 
108.78 -76.93 0 0.5773505 -0.5773503 0.5773501 0 
108.78 76.93 0 0.5773501 0.5773506 0.5773501 0 
3 0 1 2 0 
3 1 3 2 0 
3 3 4 2 0 
3 4 5 2 0 
3 5 0 2 0 
3 6 1 0 0 
3 5 6 0 0 
3 6 3 1 0 
3 5 7 6 0 
3 7 3 6 0 
3 3 7 4 0 
3 7 5 4 0 
